<?xml version="1.0" encoding="utf-8"?>
<!-- Generator: Adobe Illustrator 25.4.1, SVG Export Plug-In . SVG Version: 6.00 Build 0)  -->
<svg version="1.1" id="Layer_1" xmlns="http://www.w3.org/2000/svg" xmlns:xlink="http://www.w3.org/1999/xlink" x="0px" y="0px"
	 viewBox="0 0 32 32" style="enable-background:new 0 0 32 32;" xml:space="preserve">
<style type="text/css">
	.st0{fill:#FFFF00;}
</style>
<g>
	<path class="st0" d="M7.3,30c-0.2,0-0.4-0.1-0.6-0.2c-0.3-0.2-0.5-0.6-0.4-1l2.4-9.8l-7.3-5.2c-0.3-0.2-0.5-0.6-0.4-1
		c0.1-0.4,0.4-0.7,0.7-0.8l9.5-2.3l3.8-7.1c0.3-0.6,1.4-0.6,1.8,0l3.8,7.1l9.5,2.3c0.4,0.1,0.7,0.4,0.7,0.8c0.1,0.4-0.1,0.8-0.4,1
		l-7.3,5.2l2.4,9.8c0.1,0.4-0.1,0.8-0.4,1c-0.3,0.2-0.7,0.3-1.1,0.1L16,25.3l-8.2,4.6C7.7,30,7.5,30,7.3,30z M16,23.2
		c0.2,0,0.3,0,0.5,0.1l6.7,3.7l-2-8.3c-0.1-0.4,0.1-0.8,0.4-1l6.1-4.3l-7.8-1.9c-0.3-0.1-0.5-0.2-0.6-0.5L16,5.1L12.8,11
		c-0.1,0.2-0.4,0.4-0.6,0.5l-7.8,1.9l6.1,4.3c0.3,0.2,0.5,0.7,0.4,1l-2,8.3l6.7-3.7C15.7,23.2,15.8,23.2,16,23.2z"/>
</g>
<polygon class="st0" points="24.9,29.2 16,24.5 7.1,29.2 8.8,19.4 1.6,12.4 11.6,11 16,2 20.4,11 30.4,12.4 23.2,19.4 "/>
</svg>
