<?xml version="1.0" ?><svg id="Layer_1" style="enable-background:new 0 0 32 32;" version="1.1" viewBox="0 0 32 32" xml:space="preserve" xmlns="http://www.w3.org/2000/svg" xmlns:xlink="http://www.w3.org/1999/xlink"><g><path d="M7.347168,30c-0.2133789,0-0.4262695-0.0683594-0.6040039-0.2026367   c-0.315918-0.2397461-0.4609375-0.644043-0.3686523-1.0297852l2.3515625-9.8388672L1.4208984,13.746582   c-0.3193359-0.2265625-0.4770508-0.6186523-0.4038086-1.0029297c0.0737305-0.3847656,0.3647461-0.690918,0.7451172-0.7841797   l9.5288086-2.3256836l3.828125-7.1079102c0.3486328-0.6474609,1.4121094-0.6484375,1.7607422,0l3.8291016,7.1079102   l9.5288086,2.3256836c0.3803711,0.0932617,0.6713867,0.3994141,0.7451172,0.7841797   c0.0732422,0.3842773-0.0844727,0.7763672-0.4038086,1.0029297l-7.3051758,5.1821289l2.3515625,9.8388672   c0.0922852,0.3857422-0.0527344,0.7900391-0.3686523,1.0297852c-0.3173828,0.2397461-0.7451172,0.2680664-1.0913086,0.0756836   l-8.1650391-4.5561523l-8.1660156,4.5561523C7.6821289,29.9580078,7.5146484,30,7.347168,30z M15.9995117,23.171875   c0.1679688,0,0.3359375,0.0424805,0.4873047,0.1269531l6.6635742,3.7177734l-1.9790039-8.2802734   c-0.0947266-0.3969727,0.0610352-0.8120117,0.394043-1.0478516l6.0693359-4.3056641l-7.8325195-1.9116211   c-0.2749023-0.0673828-0.5087891-0.2480469-0.6430664-0.4975586l-3.1586914-5.8647461l-3.159668,5.8647461   c-0.1342773,0.2495117-0.3681641,0.4301758-0.6430664,0.4975586l-7.8325195,1.9116211l6.0693359,4.3056641   c0.3330078,0.2358398,0.4887695,0.6508789,0.394043,1.0478516l-1.9790039,8.2802734l6.6625977-3.7177734   C15.6635742,23.2143555,15.831543,23.171875,15.9995117,23.171875z"/></g></svg>